<mxfile host="65bd71144e">
    <diagram id="X3y0ZtMushf5yGIk-xHo" name="Página-1">
        <mxGraphModel dx="1382" dy="143" grid="1" gridSize="10" guides="1" tooltips="1" connect="1" arrows="1" fold="1" page="1" pageScale="1" pageWidth="1169" pageHeight="827" math="0" shadow="0">
            <root>
                <mxCell id="0"/>
                <mxCell id="1" parent="0"/>
                <mxCell id="15" style="edgeStyle=none;html=1;entryX=0.5;entryY=1;entryDx=0;entryDy=0;endArrow=block;endFill=1;fontSize=12;exitX=0.5;exitY=0;exitDx=0;exitDy=0;" parent="1" source="5" target="7" edge="1">
                    <mxGeometry relative="1" as="geometry">
                        <Array as="points">
                            <mxPoint x="-880" y="120"/>
                            <mxPoint x="-680" y="120"/>
                        </Array>
                    </mxGeometry>
                </mxCell>
                <mxCell id="16" style="edgeStyle=none;html=1;entryX=0.5;entryY=1;entryDx=0;entryDy=0;endArrow=block;endFill=1;fontSize=12;" parent="1" source="6" target="7" edge="1">
                    <mxGeometry relative="1" as="geometry">
                        <Array as="points">
                            <mxPoint x="-480" y="120"/>
                            <mxPoint x="-680" y="120"/>
                        </Array>
                    </mxGeometry>
                </mxCell>
                <mxCell id="6" value="EMPLEADOS" style="rounded=0;whiteSpace=wrap;html=1;fontSize=12;" parent="1" vertex="1">
                    <mxGeometry x="-560" y="160" width="160" height="80" as="geometry"/>
                </mxCell>
                <mxCell id="7" value="PERSONAS" style="rounded=0;whiteSpace=wrap;html=1;fontSize=12;" parent="1" vertex="1">
                    <mxGeometry x="-760" y="10" width="160" height="80" as="geometry"/>
                </mxCell>
                <mxCell id="8" style="html=1;labelBorderColor=none;strokeWidth=1;endArrow=oval;endFill=1;endSize=6;targetPerimeterSpacing=0;align=left;exitX=1;exitY=0;exitDx=0;exitDy=0;fontSize=12;" parent="1" target="9" edge="1">
                    <mxGeometry relative="1" as="geometry">
                        <mxPoint x="-600" y="30" as="sourcePoint"/>
                    </mxGeometry>
                </mxCell>
                <mxCell id="9" value="DNI" style="text;html=1;strokeColor=none;fillColor=none;align=left;verticalAlign=middle;whiteSpace=wrap;rounded=0;container=0;spacingLeft=8;fontSize=12;" parent="1" vertex="1">
                    <mxGeometry x="-580" y="20" width="40" height="20" as="geometry"/>
                </mxCell>
                <mxCell id="10" style="html=1;labelBorderColor=none;strokeWidth=1;endArrow=oval;endFill=1;endSize=6;targetPerimeterSpacing=0;align=left;exitX=0;exitY=0.25;exitDx=0;exitDy=0;fontSize=12;" parent="1" source="6" target="11" edge="1">
                    <mxGeometry relative="1" as="geometry">
                        <mxPoint x="-412" y="140" as="sourcePoint"/>
                    </mxGeometry>
                </mxCell>
                <mxCell id="11" value="Legajo" style="text;html=1;strokeColor=none;fillColor=none;align=left;verticalAlign=middle;whiteSpace=wrap;rounded=0;container=0;spacingLeft=8;fontSize=12;" parent="1" vertex="1">
                    <mxGeometry x="-640" y="170" width="60" height="20" as="geometry"/>
                </mxCell>
                <mxCell id="12" value="Áreas" style="rounded=0;whiteSpace=wrap;html=1;fontSize=12;" parent="1" vertex="1">
                    <mxGeometry x="-360" y="280" width="160" height="80" as="geometry"/>
                </mxCell>
                <mxCell id="13" style="html=1;labelBorderColor=none;strokeWidth=1;endArrow=oval;endFill=1;endSize=6;targetPerimeterSpacing=0;align=left;exitX=1;exitY=0.25;exitDx=0;exitDy=0;fontSize=12;" parent="1" source="12" target="14" edge="1">
                    <mxGeometry relative="1" as="geometry">
                        <mxPoint x="-252" y="330" as="sourcePoint"/>
                    </mxGeometry>
                </mxCell>
                <mxCell id="14" value="Código" style="text;html=1;strokeColor=none;fillColor=none;align=left;verticalAlign=middle;whiteSpace=wrap;rounded=0;container=0;spacingLeft=8;fontSize=12;" parent="1" vertex="1">
                    <mxGeometry x="-180" y="290" width="60" height="20" as="geometry"/>
                </mxCell>
                <mxCell id="17" value="(T, E)" style="text;html=1;strokeColor=none;fillColor=none;align=center;verticalAlign=middle;whiteSpace=wrap;rounded=0;labelBackgroundColor=none;fontSize=12;fontFamily=Helvetica;" parent="1" vertex="1">
                    <mxGeometry x="-680" y="100" width="40" height="20" as="geometry"/>
                </mxCell>
                <mxCell id="18" value="INMUEBLES" style="rounded=0;whiteSpace=wrap;html=1;fontSize=12;" parent="1" vertex="1">
                    <mxGeometry x="-960" y="400" width="160" height="80" as="geometry"/>
                </mxCell>
                <mxCell id="19" value="OPERACIONES" style="rounded=0;whiteSpace=wrap;html=1;fontSize=12;" parent="1" vertex="1">
                    <mxGeometry x="-560" y="400" width="160" height="80" as="geometry"/>
                </mxCell>
                <mxCell id="331" style="edgeStyle=none;html=1;entryX=0.5;entryY=1;entryDx=0;entryDy=0;endArrow=block;endFill=1;" edge="1" parent="1" source="22" target="19">
                    <mxGeometry relative="1" as="geometry">
                        <Array as="points">
                            <mxPoint x="-320" y="520"/>
                            <mxPoint x="-480" y="520"/>
                        </Array>
                    </mxGeometry>
                </mxCell>
                <mxCell id="22" value="VENTAS" style="rounded=0;whiteSpace=wrap;html=1;fontSize=12;" parent="1" vertex="1">
                    <mxGeometry x="-400" y="560" width="160" height="80" as="geometry"/>
                </mxCell>
                <mxCell id="330" style="edgeStyle=none;html=1;entryX=0.5;entryY=1;entryDx=0;entryDy=0;endArrow=block;endFill=1;" edge="1" parent="1" source="23" target="19">
                    <mxGeometry relative="1" as="geometry">
                        <Array as="points">
                            <mxPoint x="-640" y="520"/>
                            <mxPoint x="-480" y="520"/>
                        </Array>
                    </mxGeometry>
                </mxCell>
                <mxCell id="23" value="ALQUILERES" style="rounded=0;whiteSpace=wrap;html=1;fontSize=12;" parent="1" vertex="1">
                    <mxGeometry x="-720" y="560" width="160" height="80" as="geometry"/>
                </mxCell>
                <mxCell id="26" value="(T, E)" style="text;html=1;strokeColor=none;fillColor=none;align=center;verticalAlign=middle;whiteSpace=wrap;rounded=0;labelBackgroundColor=none;fontSize=12;fontFamily=Helvetica;" parent="1" vertex="1">
                    <mxGeometry x="-480" y="490" width="40" height="20" as="geometry"/>
                </mxCell>
                <mxCell id="27" value="trabajan_en" style="rhombus;whiteSpace=wrap;html=1;fontSize=12;" parent="1" vertex="1">
                    <mxGeometry x="-360" y="160" width="160" height="80" as="geometry"/>
                </mxCell>
                <mxCell id="32" value="" style="edgeStyle=none;html=1;endArrow=none;endFill=0;fontSize=12;entryX=0;entryY=0.5;entryDx=0;entryDy=0;" parent="1" source="6" target="27" edge="1">
                    <mxGeometry relative="1" as="geometry">
                        <mxPoint x="-342" y="210" as="sourcePoint"/>
                        <mxPoint x="-320" y="208.8888888888888" as="targetPoint"/>
                    </mxGeometry>
                </mxCell>
                <mxCell id="185" style="edgeStyle=none;shape=connector;rounded=1;html=1;entryX=0.5;entryY=0;entryDx=0;entryDy=0;labelBackgroundColor=default;strokeColor=default;fontFamily=Helvetica;fontSize=12;fontColor=default;startArrow=none;endArrow=none;endFill=0;exitX=0.5;exitY=1;exitDx=0;exitDy=0;" parent="1" source="27" target="12" edge="1">
                    <mxGeometry relative="1" as="geometry">
                        <mxPoint x="-280" y="280" as="sourcePoint"/>
                    </mxGeometry>
                </mxCell>
                <mxCell id="36" style="html=1;labelBorderColor=none;strokeWidth=1;endArrow=oval;endFill=0;endSize=6;targetPerimeterSpacing=0;align=left;exitX=0;exitY=0;exitDx=0;exitDy=0;fontSize=12;" parent="1" source="27" target="37" edge="1">
                    <mxGeometry relative="1" as="geometry">
                        <mxPoint x="-312" y="120" as="sourcePoint"/>
                    </mxGeometry>
                </mxCell>
                <mxCell id="37" value="fecha desde" style="text;html=1;strokeColor=none;fillColor=none;align=left;verticalAlign=middle;whiteSpace=wrap;rounded=0;container=0;spacingLeft=8;fontSize=12;" parent="1" vertex="1">
                    <mxGeometry x="-360" y="140" width="80" height="20" as="geometry"/>
                </mxCell>
                <mxCell id="38" style="html=1;labelBorderColor=none;strokeWidth=1;endArrow=oval;endFill=0;endSize=6;targetPerimeterSpacing=0;align=left;exitX=1;exitY=0;exitDx=0;exitDy=0;fontSize=12;" parent="1" source="27" target="39" edge="1">
                    <mxGeometry relative="1" as="geometry">
                        <mxPoint x="-262" y="110" as="sourcePoint"/>
                    </mxGeometry>
                </mxCell>
                <mxCell id="42" value="" style="group;fontSize=12;" parent="1" vertex="1" connectable="0">
                    <mxGeometry x="-280" y="140" width="110" height="20" as="geometry"/>
                </mxCell>
                <mxCell id="39" value="fecha hasta" style="text;html=1;strokeColor=none;fillColor=none;align=left;verticalAlign=middle;whiteSpace=wrap;rounded=0;container=0;spacingLeft=8;fontSize=12;" parent="42" vertex="1">
                    <mxGeometry width="80" height="20" as="geometry"/>
                </mxCell>
                <mxCell id="40" value="0..1" style="text;html=1;strokeColor=none;fillColor=none;align=center;verticalAlign=middle;whiteSpace=wrap;rounded=0;labelBackgroundColor=none;fontFamily=Helvetica;fontSize=12;container=0;" parent="42" vertex="1">
                    <mxGeometry x="70" width="40" height="20" as="geometry"/>
                </mxCell>
                <mxCell id="45" value="" style="edgeStyle=none;html=1;endArrow=none;endFill=0;startArrow=none;fontSize=12;exitX=0.5;exitY=1;exitDx=0;exitDy=0;" parent="1" source="43" target="18" edge="1">
                    <mxGeometry relative="1" as="geometry">
                        <mxPoint x="-900" y="460" as="sourcePoint"/>
                    </mxGeometry>
                </mxCell>
                <mxCell id="43" value="poseen" style="rhombus;whiteSpace=wrap;html=1;fontSize=12;" parent="1" vertex="1">
                    <mxGeometry x="-960" y="280" width="160" height="80" as="geometry"/>
                </mxCell>
                <mxCell id="46" value="" style="edgeStyle=none;html=1;endArrow=none;endFill=0;fontSize=12;" parent="1" source="5" target="43" edge="1">
                    <mxGeometry relative="1" as="geometry">
                        <mxPoint x="-862" y="240" as="sourcePoint"/>
                        <mxPoint x="-860" y="270" as="targetPoint"/>
                    </mxGeometry>
                </mxCell>
                <mxCell id="52" value="" style="edgeStyle=none;html=1;endArrow=none;endFill=0;startArrow=none;fontSize=12;exitX=0.5;exitY=0;exitDx=0;exitDy=0;" parent="1" source="50" target="6" edge="1">
                    <mxGeometry relative="1" as="geometry">
                        <mxPoint x="-460" y="280" as="sourcePoint"/>
                    </mxGeometry>
                </mxCell>
                <mxCell id="50" value="realizan" style="rhombus;whiteSpace=wrap;html=1;fontSize=12;" parent="1" vertex="1">
                    <mxGeometry x="-560" y="280" width="160" height="80" as="geometry"/>
                </mxCell>
                <mxCell id="59" value="" style="edgeStyle=none;html=1;endArrow=none;endFill=0;startArrow=none;fontSize=12;exitX=0;exitY=0.5;exitDx=0;exitDy=0;entryX=1;entryY=0.5;entryDx=0;entryDy=0;" parent="1" source="57" target="18" edge="1">
                    <mxGeometry relative="1" as="geometry">
                        <mxPoint x="-780" y="440" as="sourcePoint"/>
                        <Array as="points">
                            <mxPoint x="-760" y="440"/>
                        </Array>
                    </mxGeometry>
                </mxCell>
                <mxCell id="57" value="corresponden" style="rhombus;whiteSpace=wrap;html=1;fontSize=12;" parent="1" vertex="1">
                    <mxGeometry x="-760" y="400" width="160" height="80" as="geometry"/>
                </mxCell>
                <mxCell id="60" value="tienen" style="rhombus;whiteSpace=wrap;html=1;fontSize=12;" parent="1" vertex="1">
                    <mxGeometry x="-960" y="520" width="160" height="80" as="geometry"/>
                </mxCell>
                <mxCell id="62" value="" style="edgeStyle=none;html=1;endArrow=none;endFill=0;startArrow=none;fontSize=12;exitX=0.5;exitY=0;exitDx=0;exitDy=0;" parent="1" source="61" target="60" edge="1">
                    <mxGeometry relative="1" as="geometry">
                        <mxPoint x="-890" y="640" as="sourcePoint"/>
                    </mxGeometry>
                </mxCell>
                <mxCell id="61" value="TIPOS DE INMUEBLE" style="rounded=0;whiteSpace=wrap;html=1;fontSize=12;" parent="1" vertex="1">
                    <mxGeometry x="-960" y="640" width="160" height="80" as="geometry"/>
                </mxCell>
                <mxCell id="64" value="" style="edgeStyle=none;html=1;endArrow=none;endFill=0;fontSize=12;entryX=0.5;entryY=0;entryDx=0;entryDy=0;" parent="1" source="18" target="60" edge="1">
                    <mxGeometry relative="1" as="geometry">
                        <mxPoint x="-882" y="480" as="sourcePoint"/>
                        <mxPoint x="-880" y="500.0000000000001" as="targetPoint"/>
                    </mxGeometry>
                </mxCell>
                <mxCell id="71" value="" style="edgeStyle=none;html=1;endArrow=none;endFill=0;fontSize=12;entryX=0.5;entryY=0;entryDx=0;entryDy=0;" parent="1" source="50" target="19" edge="1">
                    <mxGeometry relative="1" as="geometry">
                        <mxPoint x="-422" y="410" as="sourcePoint"/>
                        <mxPoint x="-490" y="390" as="targetPoint"/>
                    </mxGeometry>
                </mxCell>
                <mxCell id="72" value="(1, 1)" style="text;html=1;strokeColor=none;fillColor=none;align=center;verticalAlign=middle;whiteSpace=wrap;rounded=0;labelBackgroundColor=none;fontSize=12;" parent="1" vertex="1">
                    <mxGeometry x="-480" y="370" width="40" height="20" as="geometry"/>
                </mxCell>
                <mxCell id="85" value="" style="edgeStyle=none;html=1;endArrow=none;endFill=0;fontSize=12;exitX=0;exitY=0.5;exitDx=0;exitDy=0;entryX=1;entryY=0.5;entryDx=0;entryDy=0;" parent="1" source="19" target="57" edge="1">
                    <mxGeometry relative="1" as="geometry">
                        <mxPoint x="-502" y="530" as="sourcePoint"/>
                        <mxPoint x="-600" y="490" as="targetPoint"/>
                    </mxGeometry>
                </mxCell>
                <mxCell id="86" value="(1, 1)" style="text;html=1;strokeColor=none;fillColor=none;align=center;verticalAlign=middle;whiteSpace=wrap;rounded=0;labelBackgroundColor=none;fontSize=12;" parent="1" vertex="1">
                    <mxGeometry x="-600" y="420" width="40" height="20" as="geometry"/>
                </mxCell>
                <mxCell id="89" value="(1, n)" style="text;html=1;strokeColor=none;fillColor=none;align=center;verticalAlign=middle;whiteSpace=wrap;rounded=0;labelBackgroundColor=none;fontSize=12;" parent="1" vertex="1">
                    <mxGeometry x="-800" y="420" width="40" height="20" as="geometry"/>
                </mxCell>
                <mxCell id="92" style="html=1;labelBorderColor=none;strokeWidth=1;endArrow=oval;endFill=0;endSize=6;targetPerimeterSpacing=0;align=left;exitX=1;exitY=0.25;exitDx=0;exitDy=0;fontSize=12;" parent="1" target="93" edge="1">
                    <mxGeometry relative="1" as="geometry">
                        <mxPoint x="-600" y="50" as="sourcePoint"/>
                    </mxGeometry>
                </mxCell>
                <mxCell id="93" value="Nombre" style="text;html=1;strokeColor=none;fillColor=none;align=left;verticalAlign=middle;whiteSpace=wrap;rounded=0;container=0;spacingLeft=8;fontSize=12;" parent="1" vertex="1">
                    <mxGeometry x="-580" y="40" width="60" height="20" as="geometry"/>
                </mxCell>
                <mxCell id="94" style="html=1;labelBorderColor=none;strokeWidth=1;endArrow=oval;endFill=0;endSize=6;targetPerimeterSpacing=0;align=left;exitX=1;exitY=0.5;exitDx=0;exitDy=0;fontSize=12;" parent="1" target="95" edge="1">
                    <mxGeometry relative="1" as="geometry">
                        <mxPoint x="-600" y="70" as="sourcePoint"/>
                    </mxGeometry>
                </mxCell>
                <mxCell id="95" value="Apellido" style="text;html=1;strokeColor=none;fillColor=none;align=left;verticalAlign=middle;whiteSpace=wrap;rounded=0;container=0;spacingLeft=8;fontSize=12;" parent="1" vertex="1">
                    <mxGeometry x="-580" y="60" width="60" height="20" as="geometry"/>
                </mxCell>
                <mxCell id="96" value="Dirección" style="ellipse;whiteSpace=wrap;html=1;container=0;fontSize=12;" parent="1" vertex="1">
                    <mxGeometry x="-860" y="30" width="80" height="40" as="geometry"/>
                </mxCell>
                <mxCell id="97" style="html=1;labelBorderColor=none;strokeWidth=1;endArrow=circle;endFill=0;endSize=2;targetPerimeterSpacing=0;metaEdit=0;elbow=vertical;startSize=4;exitX=0;exitY=0.5;exitDx=0;exitDy=0;fontSize=12;entryX=1;entryY=0.5;entryDx=0;entryDy=0;" parent="1" source="7" target="96" edge="1">
                    <mxGeometry relative="1" as="geometry">
                        <mxPoint x="-612" y="70" as="sourcePoint"/>
                        <mxPoint x="-750" y="70" as="targetPoint"/>
                    </mxGeometry>
                </mxCell>
                <mxCell id="98" style="html=1;labelBorderColor=none;strokeWidth=1;endArrow=oval;endFill=0;endSize=6;targetPerimeterSpacing=0;align=left;exitX=0;exitY=0;exitDx=0;exitDy=0;fontSize=12;entryX=1;entryY=0.5;entryDx=0;entryDy=0;" parent="1" source="96" target="99" edge="1">
                    <mxGeometry relative="1" as="geometry">
                        <mxPoint x="-972" y="25" as="sourcePoint"/>
                        <Array as="points">
                            <mxPoint x="-860" y="30"/>
                        </Array>
                        <mxPoint x="-950" y="25" as="targetPoint"/>
                    </mxGeometry>
                </mxCell>
                <mxCell id="99" value="Calle" style="text;html=1;strokeColor=none;fillColor=none;align=left;verticalAlign=middle;whiteSpace=wrap;rounded=0;container=0;spacingLeft=8;fontSize=12;" parent="1" vertex="1">
                    <mxGeometry x="-930" y="20" width="50" height="20" as="geometry"/>
                </mxCell>
                <mxCell id="100" style="html=1;labelBorderColor=none;strokeWidth=1;endArrow=oval;endFill=0;endSize=6;targetPerimeterSpacing=0;align=left;exitX=0;exitY=0.5;exitDx=0;exitDy=0;fontSize=12;" parent="1" source="96" target="101" edge="1">
                    <mxGeometry relative="1" as="geometry">
                        <mxPoint x="-962" y="55" as="sourcePoint"/>
                    </mxGeometry>
                </mxCell>
                <mxCell id="101" value="Número" style="text;html=1;strokeColor=none;fillColor=none;align=left;verticalAlign=middle;whiteSpace=wrap;rounded=0;container=0;spacingLeft=8;fontSize=12;" parent="1" vertex="1">
                    <mxGeometry x="-940" y="40" width="60" height="20" as="geometry"/>
                </mxCell>
                <mxCell id="102" style="html=1;labelBorderColor=none;strokeWidth=1;endArrow=oval;endFill=0;endSize=6;targetPerimeterSpacing=0;align=left;exitX=0;exitY=1;exitDx=0;exitDy=0;fontSize=12;entryX=1;entryY=0.5;entryDx=0;entryDy=0;" parent="1" source="96" target="103" edge="1">
                    <mxGeometry relative="1" as="geometry">
                        <mxPoint x="-972" y="65" as="sourcePoint"/>
                        <Array as="points">
                            <mxPoint x="-860" y="70"/>
                        </Array>
                        <mxPoint x="-870" y="70" as="targetPoint"/>
                    </mxGeometry>
                </mxCell>
                <mxCell id="103" value="Ciudad" style="text;html=1;strokeColor=none;fillColor=none;align=left;verticalAlign=middle;whiteSpace=wrap;rounded=0;container=0;spacingLeft=8;fontSize=12;" parent="1" vertex="1">
                    <mxGeometry x="-940" y="60" width="60" height="20" as="geometry"/>
                </mxCell>
                <mxCell id="109" style="html=1;labelBorderColor=none;strokeWidth=1;endArrow=oval;endFill=0;endSize=6;targetPerimeterSpacing=0;align=left;exitX=1;exitY=0.5;exitDx=0;exitDy=0;fontSize=12;" parent="1" source="12" target="110" edge="1">
                    <mxGeometry relative="1" as="geometry">
                        <mxPoint x="-62" y="330" as="sourcePoint"/>
                    </mxGeometry>
                </mxCell>
                <mxCell id="110" value="Descripción" style="text;html=1;strokeColor=none;fillColor=none;align=left;verticalAlign=middle;whiteSpace=wrap;rounded=0;container=0;spacingLeft=8;fontSize=12;" parent="1" vertex="1">
                    <mxGeometry x="-180" y="310" width="80" height="20" as="geometry"/>
                </mxCell>
                <mxCell id="111" style="html=1;labelBorderColor=none;strokeWidth=1;endArrow=oval;endFill=0;endSize=6;targetPerimeterSpacing=0;align=left;exitX=1;exitY=0.75;exitDx=0;exitDy=0;fontSize=12;" parent="1" source="12" target="112" edge="1">
                    <mxGeometry relative="1" as="geometry">
                        <mxPoint x="-242" y="350" as="sourcePoint"/>
                    </mxGeometry>
                </mxCell>
                <mxCell id="112" value="Teléfonos" style="text;html=1;strokeColor=none;fillColor=none;align=left;verticalAlign=middle;whiteSpace=wrap;rounded=0;container=0;spacingLeft=8;fontSize=12;" parent="1" vertex="1">
                    <mxGeometry x="-180" y="330" width="80" height="20" as="geometry"/>
                </mxCell>
                <mxCell id="113" style="html=1;labelBorderColor=none;strokeWidth=1;endArrow=oval;endFill=0;endSize=6;targetPerimeterSpacing=0;align=left;exitX=1;exitY=1;exitDx=0;exitDy=0;fontSize=12;" parent="1" source="12" target="114" edge="1">
                    <mxGeometry relative="1" as="geometry">
                        <mxPoint x="-202" y="410" as="sourcePoint"/>
                    </mxGeometry>
                </mxCell>
                <mxCell id="114" value="Ubicación" style="text;html=1;strokeColor=none;fillColor=none;align=left;verticalAlign=middle;whiteSpace=wrap;rounded=0;container=0;spacingLeft=8;fontSize=12;" parent="1" vertex="1">
                    <mxGeometry x="-180" y="350" width="80" height="20" as="geometry"/>
                </mxCell>
                <mxCell id="128" value="Dirección" style="ellipse;whiteSpace=wrap;html=1;container=0;fontSize=12;" parent="1" vertex="1">
                    <mxGeometry x="-1060" y="380" width="80" height="40" as="geometry"/>
                </mxCell>
                <mxCell id="129" style="html=1;labelBorderColor=none;strokeWidth=1;endArrow=circle;endFill=1;endSize=2;targetPerimeterSpacing=0;metaEdit=0;entryX=1;entryY=0.5;entryDx=0;entryDy=0;elbow=vertical;startSize=4;exitX=0;exitY=0;exitDx=0;exitDy=0;fontSize=12;" parent="1" source="18" target="128" edge="1">
                    <mxGeometry relative="1" as="geometry">
                        <mxPoint x="-1169" y="449" as="sourcePoint"/>
                        <mxPoint x="-1147.364614515035" y="459" as="targetPoint"/>
                    </mxGeometry>
                </mxCell>
                <mxCell id="130" style="html=1;labelBorderColor=none;strokeWidth=1;endArrow=oval;endFill=1;endSize=6;targetPerimeterSpacing=0;align=left;exitX=0;exitY=0.5;exitDx=0;exitDy=0;fontSize=12;" parent="1" source="18" target="131" edge="1">
                    <mxGeometry relative="1" as="geometry">
                        <mxPoint x="-1155" y="459" as="sourcePoint"/>
                    </mxGeometry>
                </mxCell>
                <mxCell id="131" value="Código" style="text;html=1;strokeColor=none;fillColor=none;align=left;verticalAlign=middle;whiteSpace=wrap;rounded=0;container=0;spacingLeft=8;fontSize=12;" parent="1" vertex="1">
                    <mxGeometry x="-1040" y="430" width="60" height="20" as="geometry"/>
                </mxCell>
                <mxCell id="132" style="html=1;labelBorderColor=none;strokeWidth=1;endArrow=oval;endFill=0;endSize=6;targetPerimeterSpacing=0;align=left;exitX=0.25;exitY=1;exitDx=0;exitDy=0;fontSize=12;" parent="1" source="18" target="133" edge="1">
                    <mxGeometry relative="1" as="geometry">
                        <mxPoint x="-1122" y="460" as="sourcePoint"/>
                        <Array as="points">
                            <mxPoint x="-960" y="500"/>
                        </Array>
                    </mxGeometry>
                </mxCell>
                <mxCell id="133" value="Balcón" style="text;html=1;strokeColor=none;fillColor=none;align=left;verticalAlign=middle;whiteSpace=wrap;rounded=0;container=0;spacingLeft=8;fontSize=12;" parent="1" vertex="1">
                    <mxGeometry x="-1040" y="490" width="60" height="20" as="geometry"/>
                </mxCell>
                <mxCell id="134" style="html=1;labelBorderColor=none;strokeWidth=1;endArrow=oval;endFill=0;endSize=6;targetPerimeterSpacing=0;align=left;exitX=0;exitY=0.75;exitDx=0;exitDy=0;fontSize=12;" parent="1" source="18" target="135" edge="1">
                    <mxGeometry relative="1" as="geometry">
                        <mxPoint x="-1102" y="460" as="sourcePoint"/>
                    </mxGeometry>
                </mxCell>
                <mxCell id="135" value="Ambientes" style="text;html=1;strokeColor=none;fillColor=none;align=left;verticalAlign=middle;whiteSpace=wrap;rounded=0;container=0;spacingLeft=8;fontSize=12;" parent="1" vertex="1">
                    <mxGeometry x="-1060" y="450" width="80" height="20" as="geometry"/>
                </mxCell>
                <mxCell id="136" style="html=1;labelBorderColor=none;strokeWidth=1;endArrow=oval;endFill=0;endSize=6;targetPerimeterSpacing=0;align=left;exitX=0.25;exitY=1;exitDx=0;exitDy=0;entryX=1;entryY=0.5;entryDx=0;entryDy=0;fontSize=12;" parent="1" source="18" target="137" edge="1">
                    <mxGeometry relative="1" as="geometry">
                        <mxPoint x="-1122" y="510" as="sourcePoint"/>
                        <Array as="points">
                            <mxPoint x="-960" y="520"/>
                        </Array>
                    </mxGeometry>
                </mxCell>
                <mxCell id="137" value="Lavadero" style="text;html=1;strokeColor=none;fillColor=none;align=left;verticalAlign=middle;whiteSpace=wrap;rounded=0;container=0;spacingLeft=8;fontSize=12;" parent="1" vertex="1">
                    <mxGeometry x="-1050" y="510" width="70" height="20" as="geometry"/>
                </mxCell>
                <mxCell id="140" style="html=1;labelBorderColor=none;strokeWidth=1;endArrow=oval;endFill=0;endSize=6;targetPerimeterSpacing=0;align=left;rounded=1;labelBackgroundColor=default;strokeColor=default;fontFamily=Helvetica;fontSize=12;fontColor=default;shape=connector;exitX=0;exitY=1;exitDx=0;exitDy=0;" parent="1" source="18" target="141" edge="1">
                    <mxGeometry relative="1" as="geometry">
                        <mxPoint x="-1169" y="480" as="sourcePoint"/>
                    </mxGeometry>
                </mxCell>
                <mxCell id="141" value="Baños" style="text;html=1;strokeColor=none;fillColor=none;align=left;verticalAlign=middle;whiteSpace=wrap;rounded=0;container=0;spacingLeft=8;fontFamily=Helvetica;fontSize=12;fontColor=default;" parent="1" vertex="1">
                    <mxGeometry x="-1030" y="470" width="50" height="20" as="geometry"/>
                </mxCell>
                <mxCell id="149" style="html=1;labelBorderColor=none;strokeWidth=1;endArrow=oval;endFill=0;endSize=6;targetPerimeterSpacing=0;align=left;rounded=1;labelBackgroundColor=default;strokeColor=default;fontFamily=Helvetica;fontSize=12;fontColor=default;shape=connector;exitX=0;exitY=0;exitDx=0;exitDy=0;" parent="1" source="128" target="150" edge="1">
                    <mxGeometry relative="1" as="geometry">
                        <mxPoint x="-1202" y="390" as="sourcePoint"/>
                        <Array as="points">
                            <mxPoint x="-1070" y="380"/>
                        </Array>
                    </mxGeometry>
                </mxCell>
                <mxCell id="150" value="Número" style="text;html=1;strokeColor=none;fillColor=none;align=left;verticalAlign=middle;whiteSpace=wrap;rounded=0;container=0;spacingLeft=8;fontFamily=Helvetica;fontSize=12;fontColor=default;" parent="1" vertex="1">
                    <mxGeometry x="-1140" y="370" width="60" height="20" as="geometry"/>
                </mxCell>
                <mxCell id="151" style="html=1;labelBorderColor=none;strokeWidth=1;endArrow=oval;endFill=0;endSize=6;targetPerimeterSpacing=0;align=left;rounded=1;labelBackgroundColor=default;strokeColor=default;fontFamily=Helvetica;fontSize=12;fontColor=default;shape=connector;exitX=0;exitY=0.5;exitDx=0;exitDy=0;" parent="1" source="128" target="152" edge="1">
                    <mxGeometry relative="1" as="geometry">
                        <mxPoint x="-1145" y="390" as="sourcePoint"/>
                    </mxGeometry>
                </mxCell>
                <mxCell id="152" value="Calle" style="text;html=1;strokeColor=none;fillColor=none;align=left;verticalAlign=middle;whiteSpace=wrap;rounded=0;container=0;spacingLeft=8;fontFamily=Helvetica;fontSize=12;fontColor=default;" parent="1" vertex="1">
                    <mxGeometry x="-1130" y="390" width="50" height="20" as="geometry"/>
                </mxCell>
                <mxCell id="153" style="html=1;labelBorderColor=none;strokeWidth=1;endArrow=oval;endFill=0;endSize=6;targetPerimeterSpacing=0;align=left;rounded=1;labelBackgroundColor=default;strokeColor=default;fontFamily=Helvetica;fontSize=12;fontColor=default;shape=connector;exitX=0;exitY=1;exitDx=0;exitDy=0;" parent="1" source="128" target="154" edge="1">
                    <mxGeometry relative="1" as="geometry">
                        <mxPoint x="-1169" y="360" as="sourcePoint"/>
                        <Array as="points">
                            <mxPoint x="-1070" y="420"/>
                        </Array>
                    </mxGeometry>
                </mxCell>
                <mxCell id="154" value="Ciudad" style="text;html=1;strokeColor=none;fillColor=none;align=left;verticalAlign=middle;whiteSpace=wrap;rounded=0;container=0;spacingLeft=8;fontFamily=Helvetica;fontSize=12;fontColor=default;" parent="1" vertex="1">
                    <mxGeometry x="-1140" y="410" width="60" height="20" as="geometry"/>
                </mxCell>
                <mxCell id="155" style="html=1;labelBorderColor=none;strokeWidth=1;endArrow=oval;endFill=0;endSize=6;targetPerimeterSpacing=0;align=left;rounded=1;labelBackgroundColor=default;strokeColor=default;fontFamily=Helvetica;fontSize=12;fontColor=default;shape=connector;exitX=0.25;exitY=1;exitDx=0;exitDy=0;entryX=0.75;entryY=0;entryDx=0;entryDy=0;" parent="1" source="23" target="156" edge="1">
                    <mxGeometry relative="1" as="geometry">
                        <mxPoint x="-775" y="530" as="sourcePoint"/>
                    </mxGeometry>
                </mxCell>
                <mxCell id="157" style="html=1;labelBorderColor=none;strokeWidth=1;endArrow=oval;endFill=0;endSize=6;targetPerimeterSpacing=0;align=left;rounded=1;labelBackgroundColor=default;strokeColor=default;fontFamily=Helvetica;fontSize=12;fontColor=default;shape=connector;exitX=0.75;exitY=1;exitDx=0;exitDy=0;entryX=0.581;entryY=-0.05;entryDx=0;entryDy=0;entryPerimeter=0;" parent="1" source="23" target="158" edge="1">
                    <mxGeometry relative="1" as="geometry">
                        <mxPoint x="-745" y="650" as="sourcePoint"/>
                        <mxPoint x="-605" y="670" as="targetPoint"/>
                    </mxGeometry>
                </mxCell>
                <mxCell id="159" style="html=1;labelBorderColor=none;strokeWidth=1;endArrow=oval;endFill=0;endSize=6;targetPerimeterSpacing=0;align=left;rounded=1;labelBackgroundColor=default;strokeColor=default;fontFamily=Helvetica;fontSize=12;fontColor=default;shape=connector;exitX=1;exitY=0.5;exitDx=0;exitDy=0;" parent="1" source="19" target="160" edge="1">
                    <mxGeometry relative="1" as="geometry">
                        <mxPoint x="-315" y="500" as="sourcePoint"/>
                    </mxGeometry>
                </mxCell>
                <mxCell id="160" value="Precio" style="text;html=1;strokeColor=none;fillColor=none;align=left;verticalAlign=middle;whiteSpace=wrap;rounded=0;container=0;spacingLeft=8;fontFamily=Helvetica;fontSize=12;fontColor=default;" parent="1" vertex="1">
                    <mxGeometry x="-380" y="430" width="60" height="20" as="geometry"/>
                </mxCell>
                <mxCell id="161" style="html=1;labelBorderColor=none;strokeWidth=1;endArrow=oval;endFill=0;endSize=6;targetPerimeterSpacing=0;align=left;rounded=1;labelBackgroundColor=default;strokeColor=default;fontFamily=Helvetica;fontSize=12;fontColor=default;shape=connector;exitX=1;exitY=0;exitDx=0;exitDy=0;" parent="1" source="22" target="162" edge="1">
                    <mxGeometry relative="1" as="geometry">
                        <mxPoint x="-235" y="570" as="sourcePoint"/>
                    </mxGeometry>
                </mxCell>
                <mxCell id="162" value="Fecha y hora" style="text;html=1;strokeColor=none;fillColor=none;align=left;verticalAlign=middle;whiteSpace=wrap;rounded=0;container=0;spacingLeft=8;fontFamily=Helvetica;fontSize=12;fontColor=default;" parent="1" vertex="1">
                    <mxGeometry x="-220" y="550" width="90" height="20" as="geometry"/>
                </mxCell>
                <mxCell id="164" style="html=1;labelBorderColor=none;strokeWidth=1;endArrow=oval;endFill=0;endSize=6;targetPerimeterSpacing=0;align=left;rounded=1;labelBackgroundColor=default;strokeColor=default;fontFamily=Helvetica;fontSize=12;fontColor=default;shape=connector;exitX=1;exitY=0.25;exitDx=0;exitDy=0;" parent="1" source="22" target="165" edge="1">
                    <mxGeometry relative="1" as="geometry">
                        <mxPoint x="-205" y="610" as="sourcePoint"/>
                    </mxGeometry>
                </mxCell>
                <mxCell id="165" value="Comisión" style="text;html=1;strokeColor=none;fillColor=none;align=left;verticalAlign=middle;whiteSpace=wrap;rounded=0;container=0;spacingLeft=8;fontFamily=Helvetica;fontSize=12;fontColor=default;" parent="1" vertex="1">
                    <mxGeometry x="-220" y="570" width="80" height="20" as="geometry"/>
                </mxCell>
                <mxCell id="175" value="" style="group;fontSize=12;" parent="1" vertex="1" connectable="0">
                    <mxGeometry x="-630" y="660" width="90" height="20" as="geometry"/>
                </mxCell>
                <mxCell id="158" value="Fecha fin" style="text;html=1;strokeColor=none;fillColor=none;align=left;verticalAlign=middle;whiteSpace=wrap;rounded=0;container=0;spacingLeft=8;fontFamily=Helvetica;fontSize=12;fontColor=default;" parent="175" vertex="1">
                    <mxGeometry width="70" height="20" as="geometry"/>
                </mxCell>
                <mxCell id="166" value="0..1" style="text;html=1;strokeColor=none;fillColor=none;align=center;verticalAlign=middle;whiteSpace=wrap;rounded=0;labelBackgroundColor=none;fontFamily=Helvetica;fontSize=12;container=0;fontColor=default;" parent="175" vertex="1">
                    <mxGeometry x="60" width="30" height="20" as="geometry"/>
                </mxCell>
                <mxCell id="180" value="" style="group;fontSize=12;" parent="1" vertex="1" connectable="0">
                    <mxGeometry x="-750" y="660" width="110" height="20" as="geometry"/>
                </mxCell>
                <mxCell id="156" value="Fecha inicio&amp;nbsp;" style="text;html=1;strokeColor=none;fillColor=none;align=left;verticalAlign=middle;whiteSpace=wrap;rounded=0;container=0;spacingLeft=8;fontFamily=Helvetica;fontSize=12;fontColor=default;" parent="180" vertex="1">
                    <mxGeometry width="80" height="20" as="geometry"/>
                </mxCell>
                <mxCell id="179" value="0..1" style="text;html=1;strokeColor=none;fillColor=none;align=center;verticalAlign=middle;whiteSpace=wrap;rounded=0;labelBackgroundColor=none;fontFamily=Helvetica;fontSize=12;container=0;fontColor=default;" parent="180" vertex="1">
                    <mxGeometry x="80" width="30" height="20" as="geometry"/>
                </mxCell>
                <mxCell id="181" style="html=1;labelBorderColor=none;strokeWidth=1;endArrow=oval;endFill=1;endSize=6;targetPerimeterSpacing=0;align=left;rounded=1;labelBackgroundColor=default;strokeColor=default;fontFamily=Helvetica;fontSize=12;fontColor=default;shape=connector;exitX=1;exitY=0.25;exitDx=0;exitDy=0;" parent="1" source="19" target="182" edge="1">
                    <mxGeometry relative="1" as="geometry">
                        <mxPoint x="-305" y="520" as="sourcePoint"/>
                    </mxGeometry>
                </mxCell>
                <mxCell id="182" value="Identificador" style="text;html=1;strokeColor=none;fillColor=none;align=left;verticalAlign=middle;whiteSpace=wrap;rounded=0;container=0;spacingLeft=8;fontFamily=Helvetica;fontSize=12;fontColor=default;" parent="1" vertex="1">
                    <mxGeometry x="-380" y="410" width="80" height="20" as="geometry"/>
                </mxCell>
                <mxCell id="184" value="0..1" style="text;html=1;strokeColor=none;fillColor=none;align=center;verticalAlign=middle;whiteSpace=wrap;rounded=0;labelBackgroundColor=none;fontFamily=Helvetica;fontSize=12;container=0;fontColor=default;" parent="1" vertex="1">
                    <mxGeometry x="-140" y="550" width="40" height="20" as="geometry"/>
                </mxCell>
                <mxCell id="312" value="(0, n)" style="text;html=1;strokeColor=none;fillColor=none;align=center;verticalAlign=middle;whiteSpace=wrap;rounded=0;labelBackgroundColor=none;fontSize=12;" vertex="1" parent="1">
                    <mxGeometry x="-880" y="250" width="40" height="20" as="geometry"/>
                </mxCell>
                <mxCell id="313" value="" style="group" vertex="1" connectable="0" parent="1">
                    <mxGeometry x="-1070" y="150" width="270" height="90" as="geometry"/>
                </mxCell>
                <mxCell id="5" value="CLIENTES" style="rounded=0;whiteSpace=wrap;html=1;fontSize=12;" parent="313" vertex="1">
                    <mxGeometry x="110" y="10" width="160" height="80" as="geometry"/>
                </mxCell>
                <mxCell id="116" style="html=1;labelBorderColor=none;strokeWidth=1;endArrow=oval;endFill=0;endSize=6;targetPerimeterSpacing=0;align=left;exitX=0;exitY=0.5;exitDx=0;exitDy=0;fontSize=12;" parent="313" target="117" edge="1">
                    <mxGeometry relative="1" as="geometry">
                        <mxPoint x="110" y="60" as="sourcePoint"/>
                    </mxGeometry>
                </mxCell>
                <mxCell id="117" value="Sexo" style="text;html=1;strokeColor=none;fillColor=none;align=left;verticalAlign=middle;whiteSpace=wrap;rounded=0;container=0;spacingLeft=8;fontSize=12;" parent="313" vertex="1">
                    <mxGeometry x="40" y="50" width="50" height="20" as="geometry"/>
                </mxCell>
                <mxCell id="118" style="html=1;labelBorderColor=none;strokeWidth=1;endArrow=oval;endFill=0;endSize=6;targetPerimeterSpacing=0;align=left;exitX=0;exitY=0.25;exitDx=0;exitDy=0;fontSize=12;" parent="313" target="119" edge="1">
                    <mxGeometry relative="1" as="geometry">
                        <mxPoint x="110" y="40" as="sourcePoint"/>
                    </mxGeometry>
                </mxCell>
                <mxCell id="119" value="Nacionalidad" style="text;html=1;strokeColor=none;fillColor=none;align=left;verticalAlign=middle;whiteSpace=wrap;rounded=0;container=0;spacingLeft=8;fontSize=12;" parent="313" vertex="1">
                    <mxGeometry y="30" width="90" height="20" as="geometry"/>
                </mxCell>
                <mxCell id="120" style="html=1;labelBorderColor=none;strokeWidth=1;endArrow=oval;endFill=1;endSize=6;targetPerimeterSpacing=0;align=left;exitX=0;exitY=0;exitDx=0;exitDy=0;fontSize=12;" parent="313" target="121" edge="1">
                    <mxGeometry relative="1" as="geometry">
                        <mxPoint x="110" y="20" as="sourcePoint"/>
                    </mxGeometry>
                </mxCell>
                <mxCell id="121" value="Pasaporte" style="text;html=1;strokeColor=none;fillColor=none;align=left;verticalAlign=middle;whiteSpace=wrap;rounded=0;container=0;spacingLeft=8;fontSize=12;" parent="313" vertex="1">
                    <mxGeometry x="20" y="10" width="70" height="20" as="geometry"/>
                </mxCell>
                <mxCell id="316" value="(1, 1)" style="text;html=1;strokeColor=none;fillColor=none;align=center;verticalAlign=middle;whiteSpace=wrap;rounded=0;labelBackgroundColor=none;fontSize=12;" vertex="1" parent="1">
                    <mxGeometry x="-880" y="370" width="40" height="20" as="geometry"/>
                </mxCell>
                <mxCell id="319" value="(0, n)" style="text;html=1;strokeColor=none;fillColor=none;align=center;verticalAlign=middle;whiteSpace=wrap;rounded=0;labelBackgroundColor=none;fontSize=12;" vertex="1" parent="1">
                    <mxGeometry x="-480" y="250" width="40" height="20" as="geometry"/>
                </mxCell>
                <mxCell id="321" value="(1, 1)" style="text;html=1;strokeColor=none;fillColor=none;align=center;verticalAlign=middle;whiteSpace=wrap;rounded=0;labelBackgroundColor=none;fontSize=12;" vertex="1" parent="1">
                    <mxGeometry x="-400" y="180" width="40" height="20" as="geometry"/>
                </mxCell>
                <mxCell id="322" value="(1, n)" style="text;html=1;strokeColor=none;fillColor=none;align=center;verticalAlign=middle;whiteSpace=wrap;rounded=0;labelBackgroundColor=none;fontSize=12;" vertex="1" parent="1">
                    <mxGeometry x="-280" y="250" width="40" height="20" as="geometry"/>
                </mxCell>
                <mxCell id="323" value="1..n" style="text;html=1;strokeColor=none;fillColor=none;align=center;verticalAlign=middle;whiteSpace=wrap;rounded=0;labelBackgroundColor=none;fontFamily=Helvetica;fontSize=12;container=0;" vertex="1" parent="1">
                    <mxGeometry x="-120" y="330" width="40" height="20" as="geometry"/>
                </mxCell>
                <mxCell id="324" value="(1, 1)" style="text;html=1;strokeColor=none;fillColor=none;align=center;verticalAlign=middle;whiteSpace=wrap;rounded=0;labelBackgroundColor=none;fontSize=12;" vertex="1" parent="1">
                    <mxGeometry x="-870" y="490" width="40" height="20" as="geometry"/>
                </mxCell>
                <mxCell id="325" value="(0, n)" style="text;html=1;strokeColor=none;fillColor=none;align=center;verticalAlign=middle;whiteSpace=wrap;rounded=0;labelBackgroundColor=none;fontSize=12;" vertex="1" parent="1">
                    <mxGeometry x="-880" y="610" width="40" height="20" as="geometry"/>
                </mxCell>
                <mxCell id="335" style="edgeStyle=none;html=1;exitX=0.5;exitY=1;exitDx=0;exitDy=0;entryX=0.25;entryY=0;entryDx=0;entryDy=0;endArrow=none;endFill=0;" edge="1" parent="1" source="333" target="19">
                    <mxGeometry relative="1" as="geometry">
                        <Array as="points">
                            <mxPoint x="-640" y="360"/>
                            <mxPoint x="-560" y="360"/>
                        </Array>
                    </mxGeometry>
                </mxCell>
                <mxCell id="333" value="solicitan" style="rhombus;whiteSpace=wrap;html=1;" vertex="1" parent="1">
                    <mxGeometry x="-760" y="240" width="160" height="80" as="geometry"/>
                </mxCell>
                <mxCell id="334" style="edgeStyle=none;html=1;entryX=0.5;entryY=0;entryDx=0;entryDy=0;endArrow=none;endFill=0;" edge="1" parent="1" source="5" target="333">
                    <mxGeometry relative="1" as="geometry">
                        <Array as="points">
                            <mxPoint x="-720" y="200"/>
                        </Array>
                    </mxGeometry>
                </mxCell>
                <mxCell id="336" value="(1, n)" style="text;html=1;strokeColor=none;fillColor=none;align=center;verticalAlign=middle;whiteSpace=wrap;rounded=0;labelBackgroundColor=none;fontSize=12;" vertex="1" parent="1">
                    <mxGeometry x="-760" y="180" width="40" height="20" as="geometry"/>
                </mxCell>
                <mxCell id="337" value="(1, 1)" style="text;html=1;strokeColor=none;fillColor=none;align=center;verticalAlign=middle;whiteSpace=wrap;rounded=0;labelBackgroundColor=none;fontSize=12;" vertex="1" parent="1">
                    <mxGeometry x="-640" y="340" width="40" height="20" as="geometry"/>
                </mxCell>
            </root>
        </mxGraphModel>
    </diagram>
</mxfile>